<?xml version="1.0" standalone="no"?>
<!DOCTYPE svg PUBLIC "-//W3C//DTD SVG 20010904//EN"
 "http://www.w3.org/TR/2001/REC-SVG-20010904/DTD/svg10.dtd">
<svg version="1.0" xmlns="http://www.w3.org/2000/svg"
 width="16.000000pt" height="16.000000pt" viewBox="0 0 16.000000 16.000000"
 preserveAspectRatio="xMidYMid meet">
<metadata>
Created by potrace 1.11, written by Peter Selinger 2001-2013
</metadata>
<g transform="translate(0.000000,16.000000) scale(0.004611,-0.004611)"
fill="#000000" stroke="none">
<path d="M1337 3370 c-96 -12 -170 -27 -210 -43 -34 -13 -93 -34 -132 -45
-151 -45 -175 -54 -175 -63 0 -6 -13 -15 -28 -22 -38 -16 -102 -60 -102 -70 0
-5 6 -5 13 -1 42 24 -37 -36 -148 -111 -180 -122 -282 -205 -290 -235 -3 -14
-18 -43 -33 -64 -31 -45 -30 -41 -18 -461 5 -206 8 -227 37 -325 16 -58 37
-130 45 -160 17 -64 71 -172 120 -240 19 -26 34 -52 34 -59 0 -6 5 -11 10 -11
6 0 18 -16 27 -35 9 -19 21 -31 26 -28 6 4 7 1 2 -7 -4 -7 -2 -16 6 -21 8 -4
14 -14 15 -21 2 -31 17 -78 25 -78 5 0 9 -8 9 -18 0 -10 6 -24 12 -31 11 -11
10 -12 0 -6 -11 6 -12 3 -3 -13 6 -11 11 -35 11 -53 0 -18 7 -57 16 -88 9 -31
20 -74 26 -96 6 -22 14 -51 18 -65 4 -14 15 -52 25 -85 9 -33 21 -71 26 -85 5
-14 8 -47 8 -73 -1 -36 3 -52 17 -62 18 -14 93 -40 144 -49 14 -2 48 -16 75
-29 28 -14 72 -32 98 -41 27 -9 61 -22 75 -30 15 -8 72 -30 127 -49 170 -60
685 -243 785 -280 l96 -35 -4 32 c-2 21 7 48 27 83 28 47 35 53 96 72 55 18
87 21 203 20 181 -2 241 10 318 62 55 38 64 75 62 272 -1 145 1 159 19 180 27
29 39 54 47 97 4 24 16 42 36 55 26 17 30 26 30 65 0 25 10 70 21 100 11 30
21 61 21 67 1 9 11 11 32 5 34 -8 163 -8 171 0 3 3 11 41 17 86 11 77 11 82
-13 126 -13 25 -27 46 -31 46 -5 0 -8 6 -8 14 0 7 -6 19 -14 25 -8 7 -22 34
-32 62 -10 27 -22 49 -26 49 -5 0 -16 17 -26 38 -9 20 -23 42 -30 48 -18 13
-34 95 -32 159 0 28 9 89 20 136 18 84 18 87 0 155 -18 65 -22 92 -35 239 -3
33 -14 97 -25 143 -11 46 -20 102 -20 126 0 23 -6 48 -12 55 -11 10 -6 19 22
44 43 38 139 120 151 128 15 9 -2 69 -23 80 -11 6 -17 16 -15 22 2 7 -2 24 -9
39 -13 26 -62 48 -106 48 -10 0 -18 5 -18 11 0 5 -4 8 -9 4 -5 -3 -12 -1 -16
5 -4 6 -11 7 -17 4 -8 -5 -9 -1 -5 10 5 13 3 17 -7 13 -8 -3 -16 -1 -18 4 -3
9 -20 14 -99 33 -9 3 -52 18 -94 36 -43 17 -85 30 -94 28 -9 -1 -21 1 -27 4
-6 4 -31 12 -55 18 -24 6 -53 13 -64 16 -21 6 -78 18 -130 28 -140 26 -182 32
-216 32 -21 -1 -39 2 -39 7 0 4 -9 3 -20 -3 -13 -7 -20 -7 -20 -1 0 7 -9 7
-25 1 -20 -8 -27 -6 -31 5 -5 11 -10 12 -26 4 -14 -7 -18 -8 -14 0 4 5 -3 15
-14 21 -11 6 -20 8 -20 4 0 -3 -7 0 -16 7 -11 9 -58 16 -128 21 -61 4 -142 9
-181 12 -41 3 -132 -3 -218 -14z"/>
</g>
</svg>
